<svg aria-roledescription="timeline" role="graphics-document document" viewBox="100 0 1190 1238.5875244140625" style="max-width: 1190px; background-color: transparent;" xmlns:xlink="http://www.w3.org/1999/xlink" xmlns="http://www.w3.org/2000/svg" width="100%" id="my-svg"><style>#my-svg{font-family:"trebuchet ms",verdana,arial,sans-serif;font-size:16px;fill:#ccc;}@keyframes edge-animation-frame{from{stroke-dashoffset:0;}}@keyframes dash{to{stroke-dashoffset:0;}}#my-svg .edge-animation-slow{stroke-dasharray:9,5!important;stroke-dashoffset:900;animation:dash 50s linear infinite;stroke-linecap:round;}#my-svg .edge-animation-fast{stroke-dasharray:9,5!important;stroke-dashoffset:900;animation:dash 20s linear infinite;stroke-linecap:round;}#my-svg .error-icon{fill:#a44141;}#my-svg .error-text{fill:#ddd;stroke:#ddd;}#my-svg .edge-thickness-normal{stroke-width:1px;}#my-svg .edge-thickness-thick{stroke-width:3.5px;}#my-svg .edge-pattern-solid{stroke-dasharray:0;}#my-svg .edge-thickness-invisible{stroke-width:0;fill:none;}#my-svg .edge-pattern-dashed{stroke-dasharray:3;}#my-svg .edge-pattern-dotted{stroke-dasharray:2;}#my-svg .marker{fill:lightgrey;stroke:lightgrey;}#my-svg .marker.cross{stroke:lightgrey;}#my-svg svg{font-family:"trebuchet ms",verdana,arial,sans-serif;font-size:16px;}#my-svg p{margin:0;}#my-svg .edge{stroke-width:3;}#my-svg .section--1 rect,#my-svg .section--1 path,#my-svg .section--1 circle,#my-svg .section--1 path{fill:#1f2020;}#my-svg .section--1 text{fill:lightgrey;}#my-svg .node-icon--1{font-size:40px;color:lightgrey;}#my-svg .section-edge--1{stroke:#1f2020;}#my-svg .edge-depth--1{stroke-width:17;}#my-svg .section--1 line{stroke:#e0dfdf;stroke-width:3;}#my-svg .lineWrapper line{stroke:lightgrey;}#my-svg .disabled,#my-svg .disabled circle,#my-svg .disabled text{fill:lightgray;}#my-svg .disabled text{fill:#efefef;}#my-svg .section-0 rect,#my-svg .section-0 path,#my-svg .section-0 circle,#my-svg .section-0 path{fill:#0b0000;}#my-svg .section-0 text{fill:lightgrey;}#my-svg .node-icon-0{font-size:40px;color:lightgrey;}#my-svg .section-edge-0{stroke:#0b0000;}#my-svg .edge-depth-0{stroke-width:14;}#my-svg .section-0 line{stroke:#f4ffff;stroke-width:3;}#my-svg .lineWrapper line{stroke:lightgrey;}#my-svg .disabled,#my-svg .disabled circle,#my-svg .disabled text{fill:lightgray;}#my-svg .disabled text{fill:#efefef;}#my-svg .section-1 rect,#my-svg .section-1 path,#my-svg .section-1 circle,#my-svg .section-1 path{fill:#4d1037;}#my-svg .section-1 text{fill:lightgrey;}#my-svg .node-icon-1{font-size:40px;color:lightgrey;}#my-svg .section-edge-1{stroke:#4d1037;}#my-svg .edge-depth-1{stroke-width:11;}#my-svg .section-1 line{stroke:#b2efc8;stroke-width:3;}#my-svg .lineWrapper line{stroke:lightgrey;}#my-svg .disabled,#my-svg .disabled circle,#my-svg .disabled text{fill:lightgray;}#my-svg .disabled text{fill:#efefef;}#my-svg .section-2 rect,#my-svg .section-2 path,#my-svg .section-2 circle,#my-svg .section-2 path{fill:#3f5258;}#my-svg .section-2 text{fill:lightgrey;}#my-svg .node-icon-2{font-size:40px;color:lightgrey;}#my-svg .section-edge-2{stroke:#3f5258;}#my-svg .edge-depth-2{stroke-width:8;}#my-svg .section-2 line{stroke:#c0ada7;stroke-width:3;}#my-svg .lineWrapper line{stroke:lightgrey;}#my-svg .disabled,#my-svg .disabled circle,#my-svg .disabled text{fill:lightgray;}#my-svg .disabled text{fill:#efefef;}#my-svg .section-3 rect,#my-svg .section-3 path,#my-svg .section-3 circle,#my-svg .section-3 path{fill:#4f2f1b;}#my-svg .section-3 text{fill:lightgrey;}#my-svg .node-icon-3{font-size:40px;color:lightgrey;}#my-svg .section-edge-3{stroke:#4f2f1b;}#my-svg .edge-depth-3{stroke-width:5;}#my-svg .section-3 line{stroke:#b0d0e4;stroke-width:3;}#my-svg .lineWrapper line{stroke:lightgrey;}#my-svg .disabled,#my-svg .disabled circle,#my-svg .disabled text{fill:lightgray;}#my-svg .disabled text{fill:#efefef;}#my-svg .section-4 rect,#my-svg .section-4 path,#my-svg .section-4 circle,#my-svg .section-4 path{fill:#6e0a0a;}#my-svg .section-4 text{fill:lightgrey;}#my-svg .node-icon-4{font-size:40px;color:lightgrey;}#my-svg .section-edge-4{stroke:#6e0a0a;}#my-svg .edge-depth-4{stroke-width:2;}#my-svg .section-4 line{stroke:#91f5f5;stroke-width:3;}#my-svg .lineWrapper line{stroke:lightgrey;}#my-svg .disabled,#my-svg .disabled circle,#my-svg .disabled text{fill:lightgray;}#my-svg .disabled text{fill:#efefef;}#my-svg .section-5 rect,#my-svg .section-5 path,#my-svg .section-5 circle,#my-svg .section-5 path{fill:#3b0048;}#my-svg .section-5 text{fill:lightgrey;}#my-svg .node-icon-5{font-size:40px;color:lightgrey;}#my-svg .section-edge-5{stroke:#3b0048;}#my-svg .edge-depth-5{stroke-width:-1;}#my-svg .section-5 line{stroke:#c4ffb7;stroke-width:3;}#my-svg .lineWrapper line{stroke:lightgrey;}#my-svg .disabled,#my-svg .disabled circle,#my-svg .disabled text{fill:lightgray;}#my-svg .disabled text{fill:#efefef;}#my-svg .section-6 rect,#my-svg .section-6 path,#my-svg .section-6 circle,#my-svg .section-6 path{fill:#995a01;}#my-svg .section-6 text{fill:lightgrey;}#my-svg .node-icon-6{font-size:40px;color:lightgrey;}#my-svg .section-edge-6{stroke:#995a01;}#my-svg .edge-depth-6{stroke-width:-4;}#my-svg .section-6 line{stroke:#66a5fe;stroke-width:3;}#my-svg .lineWrapper line{stroke:lightgrey;}#my-svg .disabled,#my-svg .disabled circle,#my-svg .disabled text{fill:lightgray;}#my-svg .disabled text{fill:#efefef;}#my-svg .section-7 rect,#my-svg .section-7 path,#my-svg .section-7 circle,#my-svg .section-7 path{fill:#154706;}#my-svg .section-7 text{fill:lightgrey;}#my-svg .node-icon-7{font-size:40px;color:lightgrey;}#my-svg .section-edge-7{stroke:#154706;}#my-svg .edge-depth-7{stroke-width:-7;}#my-svg .section-7 line{stroke:#eab8f9;stroke-width:3;}#my-svg .lineWrapper line{stroke:lightgrey;}#my-svg .disabled,#my-svg .disabled circle,#my-svg .disabled text{fill:lightgray;}#my-svg .disabled text{fill:#efefef;}#my-svg .section-8 rect,#my-svg .section-8 path,#my-svg .section-8 circle,#my-svg .section-8 path{fill:#161722;}#my-svg .section-8 text{fill:lightgrey;}#my-svg .node-icon-8{font-size:40px;color:lightgrey;}#my-svg .section-edge-8{stroke:#161722;}#my-svg .edge-depth-8{stroke-width:-10;}#my-svg .section-8 line{stroke:#e9e8dd;stroke-width:3;}#my-svg .lineWrapper line{stroke:lightgrey;}#my-svg .disabled,#my-svg .disabled circle,#my-svg .disabled text{fill:lightgray;}#my-svg .disabled text{fill:#efefef;}#my-svg .section-9 rect,#my-svg .section-9 path,#my-svg .section-9 circle,#my-svg .section-9 path{fill:#00296f;}#my-svg .section-9 text{fill:lightgrey;}#my-svg .node-icon-9{font-size:40px;color:lightgrey;}#my-svg .section-edge-9{stroke:#00296f;}#my-svg .edge-depth-9{stroke-width:-13;}#my-svg .section-9 line{stroke:#ffd690;stroke-width:3;}#my-svg .lineWrapper line{stroke:lightgrey;}#my-svg .disabled,#my-svg .disabled circle,#my-svg .disabled text{fill:lightgray;}#my-svg .disabled text{fill:#efefef;}#my-svg .section-10 rect,#my-svg .section-10 path,#my-svg .section-10 circle,#my-svg .section-10 path{fill:#01629c;}#my-svg .section-10 text{fill:lightgrey;}#my-svg .node-icon-10{font-size:40px;color:lightgrey;}#my-svg .section-edge-10{stroke:#01629c;}#my-svg .edge-depth-10{stroke-width:-16;}#my-svg .section-10 line{stroke:#fe9d63;stroke-width:3;}#my-svg .lineWrapper line{stroke:lightgrey;}#my-svg .disabled,#my-svg .disabled circle,#my-svg .disabled text{fill:lightgray;}#my-svg .disabled text{fill:#efefef;}#my-svg .section-root rect,#my-svg .section-root path,#my-svg .section-root circle{fill:hsl(180, 1.5873015873%, 48.3529411765%);}#my-svg .section-root text{fill:#2c2c2c;}#my-svg .icon-container{height:100%;display:flex;justify-content:center;align-items:center;}#my-svg .edge{fill:none;}#my-svg .eventWrapper{filter:brightness(120%);}#my-svg :root{--mermaid-font-family:"trebuchet ms",verdana,arial,sans-serif;}</style><g/><g/><defs><marker orient="auto" markerHeight="4" markerWidth="6" refY="2" refX="5" id="arrowhead"><path d="M 0,0 V 4 L6,2 Z"/></marker></defs><g transform="translate(200, 50)"><g class="timeline-node section--1"><g><path d="M0 60.815625 v-55.815625 q0,-5 5,-5 h780 q5,0 5,5 v60.815625 H0 Z" class="node-bkg node-undefined" id="node-undefined"/><line y2="65.815625" x2="790" y1="65.815625" x1="0" class="node-line--1"/></g><g transform="translate(395, 10)"><text text-anchor="middle" dominant-baseline="middle" alignment-baseline="middle" dy="1em"><tspan dy="1em" x="0">Phase   1</tspan></text></g></g></g><g transform="translate(200, 165.815625)" class="taskWrapper"><g class="timeline-node section--1"><g><path d="M0 60.815625 v-55.815625 q0,-5 5,-5 h180 q5,0 5,5 v60.815625 H0 Z" class="node-bkg node-undefined" id="node-undefined"/><line y2="65.815625" x2="190" y1="65.815625" x1="0" class="node-line--1"/></g><g transform="translate(95, 10)"><text text-anchor="middle" dominant-baseline="middle" alignment-baseline="middle" dy="1em"><tspan dy="1em" x="0">AP1</tspan><tspan dy="1.1em" x="0">Base   Infrastructure</tspan></text></g></g></g><g class="lineWrapper"><line stroke-dasharray="5,5" marker-end="url(#arrowhead)" stroke="black" stroke-width="2" y2="1173.387483215332" x2="295" y1="231.63125000000002" x1="295"/></g><g transform="translate(200, 365.815625)" class="eventWrapper"><g class="timeline-node section--1"><g><path d="M0 45 v-40 q0,-5 5,-5 h180 q5,0 5,5 v45 H0 Z" class="node-bkg node-undefined" id="node-undefined"/><line y2="50" x2="190" y1="50" x1="0" class="node-line--1"/></g><g transform="translate(95, 10)"><text text-anchor="middle" dominant-baseline="middle" alignment-baseline="middle" dy="1em"><tspan dy="1em" x="0">1,5   PM</tspan></text></g></g></g><g transform="translate(200, 425.815625)" class="eventWrapper"><g class="timeline-node section--1"><g><path d="M0 58.41562347412109 v-53.41562347412109 q0,-5 5,-5 h180 q5,0 5,5 v58.41562347412109 H0 Z" class="node-bkg node-undefined" id="node-undefined"/><line y2="63.41562347412109" x2="190" y1="63.41562347412109" x1="0" class="node-line--1"/></g><g transform="translate(95, 10)"><text text-anchor="middle" dominant-baseline="middle" alignment-baseline="middle" dy="1em"><tspan dy="1em" x="0">Set   up   repository   |</tspan><tspan dy="1.1em" x="0">GitHub</tspan></text></g></g></g><g transform="translate(200, 499.2312484741211)" class="eventWrapper"><g class="timeline-node section--1"><g><path d="M0 93.61562042236328 v-88.61562042236328 q0,-5 5,-5 h180 q5,0 5,5 v93.61562042236328 H0 Z" class="node-bkg node-undefined" id="node-undefined"/><line y2="98.61562042236328" x2="190" y1="98.61562042236328" x1="0" class="node-line--1"/></g><g transform="translate(95, 10)"><text text-anchor="middle" dominant-baseline="middle" alignment-baseline="middle" dy="1em"><tspan dy="1em" x="0">Define/init</tspan><tspan dy="1.1em" x="0">infrastructure   |</tspan><tspan dy="1.1em" x="0">engines   |   cluster   |   (2</tspan><tspan dy="1.1em" x="0">VMs   for   PRD   TST)</tspan></text></g></g></g><g transform="translate(200, 607.8468688964844)" class="eventWrapper"><g class="timeline-node section--1"><g><path d="M0 76.01562194824218 v-71.01562194824218 q0,-5 5,-5 h180 q5,0 5,5 v76.01562194824218 H0 Z" class="node-bkg node-undefined" id="node-undefined"/><line y2="81.01562194824218" x2="190" y1="81.01562194824218" x1="0" class="node-line--1"/></g><g transform="translate(95, 10)"><text text-anchor="middle" dominant-baseline="middle" alignment-baseline="middle" dy="1em"><tspan dy="1em" x="0">DB   integration   und</tspan><tspan dy="1.1em" x="0">Base-Modelling</tspan><tspan dy="1.1em" x="0">(extra   VM)</tspan></text></g></g></g><g transform="translate(200, 698.8624908447265)" class="eventWrapper"><g class="timeline-node section--1"><g><path d="M0 45 v-40 q0,-5 5,-5 h180 q5,0 5,5 v45 H0 Z" class="node-bkg node-undefined" id="node-undefined"/><line y2="50" x2="190" y1="50" x1="0" class="node-line--1"/></g><g transform="translate(95, 10)"><text text-anchor="middle" dominant-baseline="middle" alignment-baseline="middle" dy="1em"><tspan dy="1em" x="0">Backup   Strategie</tspan></text></g></g></g><g transform="translate(200, 758.8624908447265)" class="eventWrapper"><g class="timeline-node section--1"><g><path d="M0 58.41562347412109 v-53.41562347412109 q0,-5 5,-5 h180 q5,0 5,5 v58.41562347412109 H0 Z" class="node-bkg node-undefined" id="node-undefined"/><line y2="63.41562347412109" x2="190" y1="63.41562347412109" x1="0" class="node-line--1"/></g><g transform="translate(95, 10)"><text text-anchor="middle" dominant-baseline="middle" alignment-baseline="middle" dy="1em"><tspan dy="1em" x="0">Connect   to   DB   to</tspan><tspan dy="1.1em" x="0">local</tspan></text></g></g></g><g transform="translate(200, 832.2781143188475)" class="eventWrapper"><g class="timeline-node section--1"><g><path d="M0 76.01562194824218 v-71.01562194824218 q0,-5 5,-5 h180 q5,0 5,5 v76.01562194824218 H0 Z" class="node-bkg node-undefined" id="node-undefined"/><line y2="81.01562194824218" x2="190" y1="81.01562194824218" x1="0" class="node-line--1"/></g><g transform="translate(95, 10)"><text text-anchor="middle" dominant-baseline="middle" alignment-baseline="middle" dy="1em"><tspan dy="1em" x="0">Base   infrastructure</tspan><tspan dy="1.1em" x="0">for   development   |</tspan><tspan dy="1.1em" x="0">local   BE/FE/DB</tspan></text></g></g></g><g transform="translate(200, 923.2937362670897)" class="eventWrapper"><g class="timeline-node section--1"><g><path d="M0 76.01562194824218 v-71.01562194824218 q0,-5 5,-5 h180 q5,0 5,5 v76.01562194824218 H0 Z" class="node-bkg node-undefined" id="node-undefined"/><line y2="81.01562194824218" x2="190" y1="81.01562194824218" x1="0" class="node-line--1"/></g><g transform="translate(95, 10)"><text text-anchor="middle" dominant-baseline="middle" alignment-baseline="middle" dy="1em"><tspan dy="1em" x="0">init   CI/CD   pipeline   |</tspan><tspan dy="1.1em" x="0">GitHub   actions   |</tspan><tspan dy="1.1em" x="0">workflow</tspan></text></g></g></g><g transform="translate(200, 1014.3093582153318)" class="eventWrapper"><g class="timeline-node section--1"><g><path d="M0 45 v-40 q0,-5 5,-5 h180 q5,0 5,5 v45 H0 Z" class="node-bkg node-undefined" id="node-undefined"/><line y2="50" x2="190" y1="50" x1="0" class="node-line--1"/></g><g transform="translate(95, 10)"><text text-anchor="middle" dominant-baseline="middle" alignment-baseline="middle" dy="1em"><tspan dy="1em" x="0">Upgrade   Plan</tspan></text></g></g></g><g transform="translate(200, 1074.309358215332)" class="eventWrapper"><g class="timeline-node section--1"><g><path d="M0 45 v-40 q0,-5 5,-5 h180 q5,0 5,5 v45 H0 Z" class="node-bkg node-undefined" id="node-undefined"/><line y2="50" x2="190" y1="50" x1="0" class="node-line--1"/></g><g transform="translate(95, 10)"><text text-anchor="middle" dominant-baseline="middle" alignment-baseline="middle" dy="1em"><tspan dy="1em" x="0">documentation</tspan></text></g></g></g><g transform="translate(400, 165.815625)" class="taskWrapper"><g class="timeline-node section--1"><g><path d="M0 60.815625 v-55.815625 q0,-5 5,-5 h180 q5,0 5,5 v60.815625 H0 Z" class="node-bkg node-undefined" id="node-undefined"/><line y2="65.815625" x2="190" y1="65.815625" x1="0" class="node-line--1"/></g><g transform="translate(95, 10)"><text text-anchor="middle" dominant-baseline="middle" alignment-baseline="middle" dy="1em"><tspan dy="1em" x="0">AP2</tspan><tspan dy="1.1em" x="0">Backend</tspan></text></g></g></g><g class="lineWrapper"><line stroke-dasharray="5,5" marker-end="url(#arrowhead)" stroke="black" stroke-width="2" y2="1173.387483215332" x2="495" y1="231.63125000000002" x1="495"/></g><g transform="translate(400, 365.815625)" class="eventWrapper"><g class="timeline-node section--1"><g><path d="M0 45 v-40 q0,-5 5,-5 h180 q5,0 5,5 v45 H0 Z" class="node-bkg node-undefined" id="node-undefined"/><line y2="50" x2="190" y1="50" x1="0" class="node-line--1"/></g><g transform="translate(95, 10)"><text text-anchor="middle" dominant-baseline="middle" alignment-baseline="middle" dy="1em"><tspan dy="1em" x="0">2.5   PM</tspan></text></g></g></g><g transform="translate(400, 425.815625)" class="eventWrapper"><g class="timeline-node section--1"><g><path d="M0 76.01562194824218 v-71.01562194824218 q0,-5 5,-5 h180 q5,0 5,5 v76.01562194824218 H0 Z" class="node-bkg node-undefined" id="node-undefined"/><line y2="81.01562194824218" x2="190" y1="81.01562194824218" x1="0" class="node-line--1"/></g><g transform="translate(95, 10)"><text text-anchor="middle" dominant-baseline="middle" alignment-baseline="middle" dy="1em"><tspan dy="1em" x="0">define   the   base   of</tspan><tspan dy="1.1em" x="0">roles   and</tspan><tspan dy="1.1em" x="0">permissions</tspan></text></g></g></g><g transform="translate(400, 516.8312469482422)" class="eventWrapper"><g class="timeline-node section--1"><g><path d="M0 58.41562347412109 v-53.41562347412109 q0,-5 5,-5 h180 q5,0 5,5 v58.41562347412109 H0 Z" class="node-bkg node-undefined" id="node-undefined"/><line y2="63.41562347412109" x2="190" y1="63.41562347412109" x1="0" class="node-line--1"/></g><g transform="translate(95, 10)"><text text-anchor="middle" dominant-baseline="middle" alignment-baseline="middle" dy="1em"><tspan dy="1em" x="0">Daten   Modelle</tspan><tspan dy="1.1em" x="0">migration</tspan></text></g></g></g><g transform="translate(400, 590.2468704223633)" class="eventWrapper"><g class="timeline-node section--1"><g><path d="M0 45 v-40 q0,-5 5,-5 h180 q5,0 5,5 v45 H0 Z" class="node-bkg node-undefined" id="node-undefined"/><line y2="50" x2="190" y1="50" x1="0" class="node-line--1"/></g><g transform="translate(95, 10)"><text text-anchor="middle" dominant-baseline="middle" alignment-baseline="middle" dy="1em"><tspan dy="1em" x="0">Sample   data</tspan></text></g></g></g><g transform="translate(400, 650.2468704223633)" class="eventWrapper"><g class="timeline-node section--1"><g><path d="M0 58.41562347412109 v-53.41562347412109 q0,-5 5,-5 h180 q5,0 5,5 v58.41562347412109 H0 Z" class="node-bkg node-undefined" id="node-undefined"/><line y2="63.41562347412109" x2="190" y1="63.41562347412109" x1="0" class="node-line--1"/></g><g transform="translate(95, 10)"><text text-anchor="middle" dominant-baseline="middle" alignment-baseline="middle" dy="1em"><tspan dy="1em" x="0">Endpoint</tspan><tspan dy="1.1em" x="0">implementation</tspan></text></g></g></g><g transform="translate(400, 723.6624938964843)" class="eventWrapper"><g class="timeline-node section--1"><g><path d="M0 45 v-40 q0,-5 5,-5 h180 q5,0 5,5 v45 H0 Z" class="node-bkg node-undefined" id="node-undefined"/><line y2="50" x2="190" y1="50" x1="0" class="node-line--1"/></g><g transform="translate(95, 10)"><text text-anchor="middle" dominant-baseline="middle" alignment-baseline="middle" dy="1em"><tspan dy="1em" x="0">Admin-Panel   usage</tspan></text></g></g></g><g transform="translate(400, 783.6624938964843)" class="eventWrapper"><g class="timeline-node section--1"><g><path d="M0 45 v-40 q0,-5 5,-5 h180 q5,0 5,5 v45 H0 Z" class="node-bkg node-undefined" id="node-undefined"/><line y2="50" x2="190" y1="50" x1="0" class="node-line--1"/></g><g transform="translate(95, 10)"><text text-anchor="middle" dominant-baseline="middle" alignment-baseline="middle" dy="1em"><tspan dy="1em" x="0">documentation</tspan></text></g></g></g><g transform="translate(600, 165.815625)" class="taskWrapper"><g class="timeline-node section--1"><g><path d="M0 60.815625 v-55.815625 q0,-5 5,-5 h180 q5,0 5,5 v60.815625 H0 Z" class="node-bkg node-undefined" id="node-undefined"/><line y2="65.815625" x2="190" y1="65.815625" x1="0" class="node-line--1"/></g><g transform="translate(95, 10)"><text text-anchor="middle" dominant-baseline="middle" alignment-baseline="middle" dy="1em"><tspan dy="1em" x="0">AP3</tspan><tspan dy="1.1em" x="0">QGIS   integration</tspan></text></g></g></g><g class="lineWrapper"><line stroke-dasharray="5,5" marker-end="url(#arrowhead)" stroke="black" stroke-width="2" y2="1173.387483215332" x2="695" y1="231.63125000000002" x1="695"/></g><g transform="translate(600, 365.815625)" class="eventWrapper"><g class="timeline-node section--1"><g><path d="M0 45 v-40 q0,-5 5,-5 h180 q5,0 5,5 v45 H0 Z" class="node-bkg node-undefined" id="node-undefined"/><line y2="50" x2="190" y1="50" x1="0" class="node-line--1"/></g><g transform="translate(95, 10)"><text text-anchor="middle" dominant-baseline="middle" alignment-baseline="middle" dy="1em"><tspan dy="1em" x="0">2,5   PM</tspan></text></g></g></g><g transform="translate(600, 425.815625)" class="eventWrapper"><g class="timeline-node section--1"><g><path d="M0 58.41562347412109 v-53.41562347412109 q0,-5 5,-5 h180 q5,0 5,5 v58.41562347412109 H0 Z" class="node-bkg node-undefined" id="node-undefined"/><line y2="63.41562347412109" x2="190" y1="63.41562347412109" x1="0" class="node-line--1"/></g><g transform="translate(95, 10)"><text text-anchor="middle" dominant-baseline="middle" alignment-baseline="middle" dy="1em"><tspan dy="1em" x="0">design   tutorial   -   how</tspan><tspan dy="1.1em" x="0">to   webmap</tspan></text></g></g></g><g transform="translate(600, 499.2312484741211)" class="eventWrapper"><g class="timeline-node section--1"><g><path d="M0 76.01562194824218 v-71.01562194824218 q0,-5 5,-5 h180 q5,0 5,5 v76.01562194824218 H0 Z" class="node-bkg node-undefined" id="node-undefined"/><line y2="81.01562194824218" x2="190" y1="81.01562194824218" x1="0" class="node-line--1"/></g><g transform="translate(95, 10)"><text text-anchor="middle" dominant-baseline="middle" alignment-baseline="middle" dy="1em"><tspan dy="1em" x="0">define   attributes   as</tspan><tspan dy="1.1em" x="0">modelequivalent   to</tspan><tspan dy="1.1em" x="0">fit</tspan></text></g></g></g><g transform="translate(600, 590.2468704223633)" class="eventWrapper"><g class="timeline-node section--1"><g><path d="M0 45 v-40 q0,-5 5,-5 h180 q5,0 5,5 v45 H0 Z" class="node-bkg node-undefined" id="node-undefined"/><line y2="50" x2="190" y1="50" x1="0" class="node-line--1"/></g><g transform="translate(95, 10)"><text text-anchor="middle" dominant-baseline="middle" alignment-baseline="middle" dy="1em"><tspan dy="1em" x="0">documentation</tspan></text></g></g></g><g transform="translate(800, 165.815625)" class="taskWrapper"><g class="timeline-node section--1"><g><path d="M0 76.01562194824218 v-71.01562194824218 q0,-5 5,-5 h180 q5,0 5,5 v76.01562194824218 H0 Z" class="node-bkg node-undefined" id="node-undefined"/><line y2="81.01562194824218" x2="190" y1="81.01562194824218" x1="0" class="node-line--1"/></g><g transform="translate(95, 10)"><text text-anchor="middle" dominant-baseline="middle" alignment-baseline="middle" dy="1em"><tspan dy="1em" x="0">AP4</tspan><tspan dy="1.1em" x="0">Webmap   (Frontend)</tspan><tspan dy="1.1em" x="0">prototype</tspan></text></g></g></g><g class="lineWrapper"><line stroke-dasharray="5,5" marker-end="url(#arrowhead)" stroke="black" stroke-width="2" y2="1188.5874801635741" x2="895" y1="246.8312469482422" x1="895"/></g><g transform="translate(800, 365.815625)" class="eventWrapper"><g class="timeline-node section--1"><g><path d="M0 45 v-40 q0,-5 5,-5 h180 q5,0 5,5 v45 H0 Z" class="node-bkg node-undefined" id="node-undefined"/><line y2="50" x2="190" y1="50" x1="0" class="node-line--1"/></g><g transform="translate(95, 10)"><text text-anchor="middle" dominant-baseline="middle" alignment-baseline="middle" dy="1em"><tspan dy="1em" x="0">5.5   PM</tspan></text></g></g></g><g transform="translate(800, 425.815625)" class="eventWrapper"><g class="timeline-node section--1"><g><path d="M0 58.41562347412109 v-53.41562347412109 q0,-5 5,-5 h180 q5,0 5,5 v58.41562347412109 H0 Z" class="node-bkg node-undefined" id="node-undefined"/><line y2="63.41562347412109" x2="190" y1="63.41562347412109" x1="0" class="node-line--1"/></g><g transform="translate(95, 10)"><text text-anchor="middle" dominant-baseline="middle" alignment-baseline="middle" dy="1em"><tspan dy="1em" x="0">simple   website   with</tspan><tspan dy="1.1em" x="0">home,   about</tspan></text></g></g></g><g transform="translate(800, 499.2312484741211)" class="eventWrapper"><g class="timeline-node section--1"><g><path d="M0 45 v-40 q0,-5 5,-5 h180 q5,0 5,5 v45 H0 Z" class="node-bkg node-undefined" id="node-undefined"/><line y2="50" x2="190" y1="50" x1="0" class="node-line--1"/></g><g transform="translate(95, 10)"><text text-anchor="middle" dominant-baseline="middle" alignment-baseline="middle" dy="1em"><tspan dy="1em" x="0">api   queries</tspan></text></g></g></g><g transform="translate(800, 559.2312484741211)" class="eventWrapper"><g class="timeline-node section--1"><g><path d="M0 45 v-40 q0,-5 5,-5 h180 q5,0 5,5 v45 H0 Z" class="node-bkg node-undefined" id="node-undefined"/><line y2="50" x2="190" y1="50" x1="0" class="node-line--1"/></g><g transform="translate(95, 10)"><text text-anchor="middle" dominant-baseline="middle" alignment-baseline="middle" dy="1em"><tspan dy="1em" x="0">Model   Objects</tspan></text></g></g></g><g transform="translate(800, 619.2312484741211)" class="eventWrapper"><g class="timeline-node section--1"><g><path d="M0 76.01562194824218 v-71.01562194824218 q0,-5 5,-5 h180 q5,0 5,5 v76.01562194824218 H0 Z" class="node-bkg node-undefined" id="node-undefined"/><line y2="81.01562194824218" x2="190" y1="81.01562194824218" x1="0" class="node-line--1"/></g><g transform="translate(95, 10)"><text text-anchor="middle" dominant-baseline="middle" alignment-baseline="middle" dy="1em"><tspan dy="1em" x="0">define   all   webmap</tspan><tspan dy="1.1em" x="0">attributes   and</tspan><tspan dy="1.1em" x="0">packages</tspan></text></g></g></g><g transform="translate(800, 710.2468704223633)" class="eventWrapper"><g class="timeline-node section--1"><g><path d="M0 45 v-40 q0,-5 5,-5 h180 q5,0 5,5 v45 H0 Z" class="node-bkg node-undefined" id="node-undefined"/><line y2="50" x2="190" y1="50" x1="0" class="node-line--1"/></g><g transform="translate(95, 10)"><text text-anchor="middle" dominant-baseline="middle" alignment-baseline="middle" dy="1em"><tspan dy="1em" x="0">display   sample   data</tspan></text></g></g></g><g transform="translate(800, 770.2468704223633)" class="eventWrapper"><g class="timeline-node section--1"><g><path d="M0 58.41562347412109 v-53.41562347412109 q0,-5 5,-5 h180 q5,0 5,5 v58.41562347412109 H0 Z" class="node-bkg node-undefined" id="node-undefined"/><line y2="63.41562347412109" x2="190" y1="63.41562347412109" x1="0" class="node-line--1"/></g><g transform="translate(95, 10)"><text text-anchor="middle" dominant-baseline="middle" alignment-baseline="middle" dy="1em"><tspan dy="1em" x="0">integrate   map</tspan><tspan dy="1.1em" x="0">component</tspan></text></g></g></g><g transform="translate(800, 843.6624938964843)" class="eventWrapper"><g class="timeline-node section--1"><g><path d="M0 45 v-40 q0,-5 5,-5 h180 q5,0 5,5 v45 H0 Z" class="node-bkg node-undefined" id="node-undefined"/><line y2="50" x2="190" y1="50" x1="0" class="node-line--1"/></g><g transform="translate(95, 10)"><text text-anchor="middle" dominant-baseline="middle" alignment-baseline="middle" dy="1em"><tspan dy="1em" x="0">Layer   interaction</tspan></text></g></g></g><g transform="translate(800, 903.6624938964843)" class="eventWrapper"><g class="timeline-node section--1"><g><path d="M0 45 v-40 q0,-5 5,-5 h180 q5,0 5,5 v45 H0 Z" class="node-bkg node-undefined" id="node-undefined"/><line y2="50" x2="190" y1="50" x1="0" class="node-line--1"/></g><g transform="translate(95, 10)"><text text-anchor="middle" dominant-baseline="middle" alignment-baseline="middle" dy="1em"><tspan dy="1em" x="0">category   filter</tspan></text></g></g></g><g transform="translate(800, 963.6624938964843)" class="eventWrapper"><g class="timeline-node section--1"><g><path d="M0 45 v-40 q0,-5 5,-5 h180 q5,0 5,5 v45 H0 Z" class="node-bkg node-undefined" id="node-undefined"/><line y2="50" x2="190" y1="50" x1="0" class="node-line--1"/></g><g transform="translate(95, 10)"><text text-anchor="middle" dominant-baseline="middle" alignment-baseline="middle" dy="1em"><tspan dy="1em" x="0">documentation</tspan></text></g></g></g><g class="lineWrapper"><line marker-end="url(#arrowhead)" stroke="black" stroke-width="4" y2="281.63125" x2="1240" y1="281.63125" x1="150"/></g></svg>